<mxfile host="app.diagrams.net" agent="Mozilla/5.0 (Macintosh; Intel Mac OS X 10_15_7) AppleWebKit/537.36 (KHTML, like Gecko) Chrome/138.0.0.0 Safari/537.36" version="28.0.6">
  <diagram id="t3ZfkelsdCKtqb3b9uK7" name="インフラ構成図 common alb">
    <mxGraphModel grid="0" page="0" gridSize="10" guides="1" tooltips="1" connect="1" arrows="1" fold="1" pageScale="1" pageWidth="827" pageHeight="1169" math="0" shadow="0">
      <root>
        <mxCell id="0" />
        <mxCell id="1" parent="0" />
        <mxCell id="kA7K5sc3ySlYg232Aals-64" value="AWS Cloud" style="sketch=0;outlineConnect=0;gradientColor=none;html=1;whiteSpace=wrap;fontSize=12;fontStyle=0;shape=mxgraph.aws4.group;grIcon=mxgraph.aws4.group_aws_cloud;strokeColor=default;fillColor=none;verticalAlign=top;align=left;spacingLeft=30;fontColor=#AAB7B8;dashed=0;direction=east;movable=1;resizable=1;rotatable=1;deletable=1;editable=1;locked=0;connectable=1;" parent="1" vertex="1">
          <mxGeometry x="-600" y="376" width="797" height="887" as="geometry" />
        </mxCell>
        <mxCell id="kA7K5sc3ySlYg232Aals-65" value="Region" style="sketch=0;outlineConnect=0;gradientColor=none;html=1;whiteSpace=wrap;fontSize=12;fontStyle=0;shape=mxgraph.aws4.group;grIcon=mxgraph.aws4.group_region;strokeColor=#B6BABF;fillColor=none;verticalAlign=top;align=left;spacingLeft=30;fontColor=#B6BABF;dashed=1;" parent="1" vertex="1">
          <mxGeometry x="-567" y="483" width="740" height="763" as="geometry" />
        </mxCell>
        <mxCell id="kA7K5sc3ySlYg232Aals-66" value="VPC" style="points=[[0,0],[0.25,0],[0.5,0],[0.75,0],[1,0],[1,0.25],[1,0.5],[1,0.75],[1,1],[0.75,1],[0.5,1],[0.25,1],[0,1],[0,0.75],[0,0.5],[0,0.25]];outlineConnect=0;gradientColor=none;html=1;whiteSpace=wrap;fontSize=12;fontStyle=0;container=1;pointerEvents=0;collapsible=0;recursiveResize=0;shape=mxgraph.aws4.group;grIcon=mxgraph.aws4.group_vpc2;strokeColor=default;fillColor=none;verticalAlign=top;align=left;spacingLeft=30;fontColor=#AAB7B8;dashed=0;" parent="1" vertex="1">
          <mxGeometry x="-532" y="555" width="667" height="664" as="geometry" />
        </mxCell>
        <mxCell id="kA7K5sc3ySlYg232Aals-67" value="&lt;font style=&quot;font-size: 10px;&quot;&gt;internet&amp;nbsp;&lt;span style=&quot;background-color: initial;&quot;&gt;gateway&lt;/span&gt;&lt;/font&gt;" style="text;html=1;align=center;verticalAlign=middle;resizable=0;points=[];autosize=1;strokeColor=none;fillColor=none;" parent="kA7K5sc3ySlYg232Aals-66" vertex="1">
          <mxGeometry x="239" y="22" width="91" height="26" as="geometry" />
        </mxCell>
        <mxCell id="kA7K5sc3ySlYg232Aals-68" value="" style="sketch=0;outlineConnect=0;fontColor=#232F3E;gradientColor=none;fillColor=#8C4FFF;strokeColor=none;dashed=0;verticalLabelPosition=bottom;verticalAlign=top;align=center;html=1;fontSize=12;fontStyle=0;aspect=fixed;pointerEvents=1;shape=mxgraph.aws4.internet_gateway;" parent="kA7K5sc3ySlYg232Aals-66" vertex="1">
          <mxGeometry x="265" y="-17" width="45" height="45" as="geometry" />
        </mxCell>
        <mxCell id="kA7K5sc3ySlYg232Aals-69" value="" style="sketch=0;outlineConnect=0;fontColor=#232F3E;gradientColor=none;fillColor=#8C4FFF;strokeColor=none;dashed=0;verticalLabelPosition=bottom;verticalAlign=top;align=center;html=1;fontSize=12;fontStyle=0;aspect=fixed;pointerEvents=1;shape=mxgraph.aws4.endpoints;" parent="kA7K5sc3ySlYg232Aals-66" vertex="1">
          <mxGeometry x="82" y="-23" width="45" height="45" as="geometry" />
        </mxCell>
        <mxCell id="kA7K5sc3ySlYg232Aals-70" value="&lt;font style=&quot;font-size: 10px;&quot;&gt;vpcendpoint&lt;/font&gt;" style="text;html=1;align=center;verticalAlign=middle;resizable=0;points=[];autosize=1;strokeColor=none;fillColor=none;" parent="kA7K5sc3ySlYg232Aals-66" vertex="1">
          <mxGeometry x="68.5" y="19" width="72" height="26" as="geometry" />
        </mxCell>
        <mxCell id="kA7K5sc3ySlYg232Aals-72" value="Private subnet" style="points=[[0,0],[0.25,0],[0.5,0],[0.75,0],[1,0],[1,0.25],[1,0.5],[1,0.75],[1,1],[0.75,1],[0.5,1],[0.25,1],[0,1],[0,0.75],[0,0.5],[0,0.25]];outlineConnect=0;gradientColor=none;html=1;whiteSpace=wrap;fontSize=12;fontStyle=0;container=1;pointerEvents=0;collapsible=0;recursiveResize=0;shape=mxgraph.aws4.group;grIcon=mxgraph.aws4.group_security_group;grStroke=0;strokeColor=#00A4A6;fillColor=#E6F6F7;verticalAlign=top;align=left;spacingLeft=30;fontColor=#147EBA;dashed=0;" parent="1" vertex="1">
          <mxGeometry x="-468" y="722" width="560" height="458" as="geometry" />
        </mxCell>
        <mxCell id="eJrW3ifwTGNZVpwEd4dH-2" value="" style="rounded=0;whiteSpace=wrap;html=1;fillColor=none;strokeColor=#d0cdcd;" parent="kA7K5sc3ySlYg232Aals-72" vertex="1">
          <mxGeometry x="203" y="176" width="98" height="102" as="geometry" />
        </mxCell>
        <mxCell id="kA7K5sc3ySlYg232Aals-129" value="" style="sketch=0;points=[[0,0,0],[0.25,0,0],[0.5,0,0],[0.75,0,0],[1,0,0],[0,1,0],[0.25,1,0],[0.5,1,0],[0.75,1,0],[1,1,0],[0,0.25,0],[0,0.5,0],[0,0.75,0],[1,0.25,0],[1,0.5,0],[1,0.75,0]];outlineConnect=0;fontColor=#232F3E;fillColor=#ED7100;strokeColor=#ffffff;dashed=0;verticalLabelPosition=bottom;verticalAlign=top;align=center;html=1;fontSize=12;fontStyle=0;aspect=fixed;shape=mxgraph.aws4.resourceIcon;resIcon=mxgraph.aws4.ecs;" parent="kA7K5sc3ySlYg232Aals-72" vertex="1">
          <mxGeometry x="459" y="194" width="45" height="45" as="geometry" />
        </mxCell>
        <mxCell id="kA7K5sc3ySlYg232Aals-74" value="" style="sketch=0;points=[[0,0,0],[0.25,0,0],[0.5,0,0],[0.75,0,0],[1,0,0],[0,1,0],[0.25,1,0],[0.5,1,0],[0.75,1,0],[1,1,0],[0,0.25,0],[0,0.5,0],[0,0.75,0],[1,0.25,0],[1,0.5,0],[1,0.75,0]];outlineConnect=0;fontColor=#232F3E;fillColor=#C925D1;strokeColor=#ffffff;dashed=0;verticalLabelPosition=bottom;verticalAlign=top;align=center;html=1;fontSize=12;fontStyle=0;aspect=fixed;shape=mxgraph.aws4.resourceIcon;resIcon=mxgraph.aws4.database;" parent="kA7K5sc3ySlYg232Aals-72" vertex="1">
          <mxGeometry x="16" y="346" width="45" height="45" as="geometry" />
        </mxCell>
        <mxCell id="SYO9HQyrmS-Qv4K9v25R-7" style="edgeStyle=orthogonalEdgeStyle;rounded=0;orthogonalLoop=1;jettySize=auto;html=1;endArrow=none;endFill=0;" parent="kA7K5sc3ySlYg232Aals-72" source="kA7K5sc3ySlYg232Aals-78" edge="1">
          <mxGeometry relative="1" as="geometry">
            <mxPoint x="383.6363636363635" y="216.49999999999977" as="targetPoint" />
          </mxGeometry>
        </mxCell>
        <mxCell id="kA7K5sc3ySlYg232Aals-78" value="" style="sketch=0;points=[[0,0,0],[0.25,0,0],[0.5,0,0],[0.75,0,0],[1,0,0],[0,1,0],[0.25,1,0],[0.5,1,0],[0.75,1,0],[1,1,0],[0,0.25,0],[0,0.5,0],[0,0.75,0],[1,0.25,0],[1,0.5,0],[1,0.75,0]];outlineConnect=0;fontColor=#232F3E;fillColor=#ED7100;strokeColor=#ffffff;dashed=0;verticalLabelPosition=bottom;verticalAlign=top;align=center;html=1;fontSize=12;fontStyle=0;aspect=fixed;shape=mxgraph.aws4.resourceIcon;resIcon=mxgraph.aws4.ecs;" parent="kA7K5sc3ySlYg232Aals-72" vertex="1">
          <mxGeometry x="222" y="194" width="45" height="45" as="geometry" />
        </mxCell>
        <mxCell id="kA7K5sc3ySlYg232Aals-79" value="" style="sketch=0;points=[[0,0,0],[0.25,0,0],[0.5,0,0],[0.75,0,0],[1,0,0],[0,1,0],[0.25,1,0],[0.5,1,0],[0.75,1,0],[1,1,0],[0,0.25,0],[0,0.5,0],[0,0.75,0],[1,0.25,0],[1,0.5,0],[1,0.75,0]];outlineConnect=0;fontColor=#232F3E;fillColor=#ED7100;strokeColor=#ffffff;dashed=0;verticalLabelPosition=bottom;verticalAlign=top;align=center;html=1;fontSize=12;fontStyle=0;aspect=fixed;shape=mxgraph.aws4.resourceIcon;resIcon=mxgraph.aws4.ecs;" parent="kA7K5sc3ySlYg232Aals-72" vertex="1">
          <mxGeometry x="222" y="353" width="45" height="45" as="geometry" />
        </mxCell>
        <mxCell id="kA7K5sc3ySlYg232Aals-82" style="edgeStyle=orthogonalEdgeStyle;rounded=0;orthogonalLoop=1;jettySize=auto;html=1;" parent="kA7K5sc3ySlYg232Aals-72" source="kA7K5sc3ySlYg232Aals-83" target="kA7K5sc3ySlYg232Aals-74" edge="1">
          <mxGeometry relative="1" as="geometry">
            <Array as="points">
              <mxPoint x="39" y="378" />
            </Array>
          </mxGeometry>
        </mxCell>
        <mxCell id="kA7K5sc3ySlYg232Aals-83" value="" style="sketch=0;points=[[0,0,0],[0.25,0,0],[0.5,0,0],[0.75,0,0],[1,0,0],[0,1,0],[0.25,1,0],[0.5,1,0],[0.75,1,0],[1,1,0],[0,0.25,0],[0,0.5,0],[0,0.75,0],[1,0.25,0],[1,0.5,0],[1,0.75,0]];outlineConnect=0;fontColor=#232F3E;fillColor=#C925D1;strokeColor=#ffffff;dashed=0;verticalLabelPosition=bottom;verticalAlign=top;align=center;html=1;fontSize=12;fontStyle=0;aspect=fixed;shape=mxgraph.aws4.resourceIcon;resIcon=mxgraph.aws4.codebuild;" parent="kA7K5sc3ySlYg232Aals-72" vertex="1">
          <mxGeometry x="16" y="131" width="45" height="45" as="geometry" />
        </mxCell>
        <mxCell id="kA7K5sc3ySlYg232Aals-85" value="&lt;font style=&quot;font-size: 10px;&quot;&gt;codebuild&lt;/font&gt;" style="text;html=1;align=center;verticalAlign=middle;resizable=0;points=[];autosize=1;strokeColor=none;fillColor=none;" parent="kA7K5sc3ySlYg232Aals-72" vertex="1">
          <mxGeometry x="5.5" y="168" width="61" height="26" as="geometry" />
        </mxCell>
        <mxCell id="kA7K5sc3ySlYg232Aals-138" style="edgeStyle=orthogonalEdgeStyle;rounded=0;orthogonalLoop=1;jettySize=auto;html=1;endArrow=none;endFill=0;" parent="kA7K5sc3ySlYg232Aals-72" source="kA7K5sc3ySlYg232Aals-130" edge="1">
          <mxGeometry relative="1" as="geometry">
            <mxPoint x="243.72727272727252" y="425.36363636363603" as="targetPoint" />
            <Array as="points">
              <mxPoint x="481" y="424" />
              <mxPoint x="244" y="424" />
            </Array>
          </mxGeometry>
        </mxCell>
        <mxCell id="kA7K5sc3ySlYg232Aals-130" value="" style="sketch=0;points=[[0,0,0],[0.25,0,0],[0.5,0,0],[0.75,0,0],[1,0,0],[0,1,0],[0.25,1,0],[0.5,1,0],[0.75,1,0],[1,1,0],[0,0.25,0],[0,0.5,0],[0,0.75,0],[1,0.25,0],[1,0.5,0],[1,0.75,0]];outlineConnect=0;fontColor=#232F3E;fillColor=#ED7100;strokeColor=#ffffff;dashed=0;verticalLabelPosition=bottom;verticalAlign=top;align=center;html=1;fontSize=12;fontStyle=0;aspect=fixed;shape=mxgraph.aws4.resourceIcon;resIcon=mxgraph.aws4.ecs;" parent="kA7K5sc3ySlYg232Aals-72" vertex="1">
          <mxGeometry x="459" y="351" width="45" height="45" as="geometry" />
        </mxCell>
        <mxCell id="kA7K5sc3ySlYg232Aals-139" style="edgeStyle=orthogonalEdgeStyle;rounded=0;orthogonalLoop=1;jettySize=auto;html=1;entryX=0.5;entryY=1;entryDx=0;entryDy=0;entryPerimeter=0;" parent="kA7K5sc3ySlYg232Aals-72" source="kA7K5sc3ySlYg232Aals-79" target="kA7K5sc3ySlYg232Aals-74" edge="1">
          <mxGeometry relative="1" as="geometry">
            <Array as="points">
              <mxPoint x="245" y="424" />
              <mxPoint x="39" y="424" />
            </Array>
          </mxGeometry>
        </mxCell>
        <mxCell id="0zvZXE3hYcVArxWaASn7-7" value="" style="sketch=0;points=[[0,0,0],[0.25,0,0],[0.5,0,0],[0.75,0,0],[1,0,0],[0,1,0],[0.25,1,0],[0.5,1,0],[0.75,1,0],[1,1,0],[0,0.25,0],[0,0.5,0],[0,0.75,0],[1,0.25,0],[1,0.5,0],[1,0.75,0]];outlineConnect=0;fontColor=#232F3E;fillColor=#ED7100;strokeColor=#ffffff;dashed=0;verticalLabelPosition=bottom;verticalAlign=top;align=center;html=1;fontSize=12;fontStyle=0;aspect=fixed;shape=mxgraph.aws4.resourceIcon;resIcon=mxgraph.aws4.fargate;" parent="kA7K5sc3ySlYg232Aals-72" vertex="1">
          <mxGeometry x="283" y="149" width="45" height="45" as="geometry" />
        </mxCell>
        <mxCell id="kA7K5sc3ySlYg232Aals-89" value="" style="sketch=0;points=[[0,0,0],[0.25,0,0],[0.5,0,0],[0.75,0,0],[1,0,0],[0,1,0],[0.25,1,0],[0.5,1,0],[0.75,1,0],[1,1,0],[0,0.25,0],[0,0.5,0],[0,0.75,0],[1,0.25,0],[1,0.5,0],[1,0.75,0]];outlineConnect=0;fontColor=#232F3E;fillColor=#ED7100;strokeColor=#ffffff;dashed=0;verticalLabelPosition=bottom;verticalAlign=top;align=center;html=1;fontSize=12;fontStyle=0;aspect=fixed;shape=mxgraph.aws4.resourceIcon;resIcon=mxgraph.aws4.fargate;" parent="kA7K5sc3ySlYg232Aals-72" vertex="1">
          <mxGeometry x="508" y="146" width="45" height="45" as="geometry" />
        </mxCell>
        <mxCell id="0zvZXE3hYcVArxWaASn7-9" value="&lt;span style=&quot;font-size: 10px;&quot;&gt;fargate&lt;/span&gt;" style="text;html=1;align=center;verticalAlign=middle;resizable=0;points=[];autosize=1;strokeColor=none;fillColor=none;" parent="kA7K5sc3ySlYg232Aals-72" vertex="1">
          <mxGeometry x="283" y="185" width="49" height="26" as="geometry" />
        </mxCell>
        <mxCell id="kA7K5sc3ySlYg232Aals-88" value="&lt;span style=&quot;font-size: 10px;&quot;&gt;fargate&lt;/span&gt;" style="text;html=1;align=center;verticalAlign=middle;resizable=0;points=[];autosize=1;strokeColor=none;fillColor=none;" parent="kA7K5sc3ySlYg232Aals-72" vertex="1">
          <mxGeometry x="506" y="185" width="49" height="26" as="geometry" />
        </mxCell>
        <mxCell id="0zvZXE3hYcVArxWaASn7-10" value="&lt;span style=&quot;font-size: 10px;&quot;&gt;ecs&lt;/span&gt;&lt;div&gt;&lt;span style=&quot;font-size: 10px;&quot;&gt;user-front&lt;/span&gt;&lt;/div&gt;" style="text;html=1;align=center;verticalAlign=middle;resizable=0;points=[];autosize=1;strokeColor=none;fillColor=none;" parent="kA7K5sc3ySlYg232Aals-72" vertex="1">
          <mxGeometry x="451" y="228" width="61" height="41" as="geometry" />
        </mxCell>
        <mxCell id="0zvZXE3hYcVArxWaASn7-11" value="&lt;span style=&quot;font-size: 10px;&quot;&gt;ecs&lt;/span&gt;&lt;div&gt;&lt;span style=&quot;font-size: 10px;&quot;&gt;user-api&lt;/span&gt;&lt;/div&gt;" style="text;html=1;align=center;verticalAlign=middle;resizable=0;points=[];autosize=1;strokeColor=none;fillColor=none;" parent="kA7K5sc3ySlYg232Aals-72" vertex="1">
          <mxGeometry x="464" y="385" width="54" height="41" as="geometry" />
        </mxCell>
        <mxCell id="0zvZXE3hYcVArxWaASn7-12" value="&lt;span style=&quot;font-size: 10px;&quot;&gt;ecs&lt;/span&gt;&lt;div&gt;&lt;span style=&quot;font-size: 10px;&quot;&gt;admin-api&lt;/span&gt;&lt;/div&gt;" style="text;html=1;align=center;verticalAlign=middle;resizable=0;points=[];autosize=1;strokeColor=none;fillColor=none;" parent="kA7K5sc3ySlYg232Aals-72" vertex="1">
          <mxGeometry x="229" y="387" width="62" height="41" as="geometry" />
        </mxCell>
        <mxCell id="0zvZXE3hYcVArxWaASn7-13" value="&lt;span style=&quot;font-size: 10px;&quot;&gt;ecs&lt;/span&gt;&lt;div&gt;&lt;span style=&quot;font-size: 10px;&quot;&gt;admin-front&lt;/span&gt;&lt;/div&gt;" style="text;html=1;align=center;verticalAlign=middle;resizable=0;points=[];autosize=1;strokeColor=none;fillColor=none;" parent="kA7K5sc3ySlYg232Aals-72" vertex="1">
          <mxGeometry x="210" y="231" width="69" height="41" as="geometry" />
        </mxCell>
        <mxCell id="kA7K5sc3ySlYg232Aals-126" value="" style="outlineConnect=0;dashed=0;verticalLabelPosition=bottom;verticalAlign=top;align=center;html=1;shape=mxgraph.aws3.ec2;fillColor=#F58534;gradientColor=none;" parent="kA7K5sc3ySlYg232Aals-72" vertex="1">
          <mxGeometry x="116" y="27" width="45" height="45" as="geometry" />
        </mxCell>
        <mxCell id="SYO9HQyrmS-Qv4K9v25R-10" style="edgeStyle=orthogonalEdgeStyle;rounded=0;orthogonalLoop=1;jettySize=auto;html=1;" parent="kA7K5sc3ySlYg232Aals-72" edge="1">
          <mxGeometry relative="1" as="geometry">
            <mxPoint x="365.5454545454543" y="322" as="sourcePoint" />
            <mxPoint x="267" y="373.99999999999955" as="targetPoint" />
            <Array as="points">
              <mxPoint x="366" y="374" />
            </Array>
          </mxGeometry>
        </mxCell>
        <mxCell id="kA7K5sc3ySlYg232Aals-131" value="" style="sketch=0;points=[[0,0,0],[0.25,0,0],[0.5,0,0],[0.75,0,0],[1,0,0],[0,1,0],[0.25,1,0],[0.5,1,0],[0.75,1,0],[1,1,0],[0,0.25,0],[0,0.5,0],[0,0.75,0],[1,0.25,0],[1,0.5,0],[1,0.75,0]];outlineConnect=0;fontColor=#232F3E;fillColor=#8C4FFF;strokeColor=#ffffff;dashed=0;verticalLabelPosition=bottom;verticalAlign=top;align=center;html=1;fontSize=12;fontStyle=0;aspect=fixed;shape=mxgraph.aws4.resourceIcon;resIcon=mxgraph.aws4.elastic_load_balancing;" parent="kA7K5sc3ySlYg232Aals-72" vertex="1">
          <mxGeometry x="343" y="274" width="45" height="45" as="geometry" />
        </mxCell>
        <mxCell id="kA7K5sc3ySlYg232Aals-132" style="edgeStyle=orthogonalEdgeStyle;rounded=0;orthogonalLoop=1;jettySize=auto;html=1;entryX=0.5;entryY=0;entryDx=0;entryDy=0;entryPerimeter=0;" parent="kA7K5sc3ySlYg232Aals-72" source="kA7K5sc3ySlYg232Aals-129" target="kA7K5sc3ySlYg232Aals-131" edge="1">
          <mxGeometry relative="1" as="geometry" />
        </mxCell>
        <mxCell id="SYO9HQyrmS-Qv4K9v25R-9" style="edgeStyle=orthogonalEdgeStyle;rounded=0;orthogonalLoop=1;jettySize=auto;html=1;entryX=0;entryY=0.5;entryDx=0;entryDy=0;entryPerimeter=0;" parent="kA7K5sc3ySlYg232Aals-72" source="kA7K5sc3ySlYg232Aals-131" target="kA7K5sc3ySlYg232Aals-130" edge="1">
          <mxGeometry relative="1" as="geometry">
            <Array as="points">
              <mxPoint x="366" y="374" />
              <mxPoint x="424" y="374" />
            </Array>
          </mxGeometry>
        </mxCell>
        <mxCell id="SYO9HQyrmS-Qv4K9v25R-28" value="&lt;font style=&quot;font-size: 10px;&quot;&gt;rds&lt;/font&gt;" style="text;html=1;align=center;verticalAlign=middle;resizable=0;points=[];autosize=1;strokeColor=none;fillColor=none;" parent="kA7K5sc3ySlYg232Aals-72" vertex="1">
          <mxGeometry x="39" y="385" width="32" height="26" as="geometry" />
        </mxCell>
        <mxCell id="HjDtsBbQejd2dWlMLh2n-5" value="&lt;span style=&quot;font-size: 10px;&quot;&gt;8000 port&lt;/span&gt;" style="text;html=1;align=center;verticalAlign=middle;resizable=0;points=[];autosize=1;strokeColor=none;fillColor=none;" parent="kA7K5sc3ySlYg232Aals-72" vertex="1">
          <mxGeometry x="372.5" y="365" width="60" height="26" as="geometry" />
        </mxCell>
        <mxCell id="3IufpaYmcG0l0R8AAsW2-2" value="" style="rounded=0;whiteSpace=wrap;html=1;fillColor=none;strokeColor=#d0cdcd;" parent="kA7K5sc3ySlYg232Aals-72" vertex="1">
          <mxGeometry x="203" y="333" width="98" height="102" as="geometry" />
        </mxCell>
        <mxCell id="3IufpaYmcG0l0R8AAsW2-3" value="" style="sketch=0;points=[[0,0,0],[0.25,0,0],[0.5,0,0],[0.75,0,0],[1,0,0],[0,1,0],[0.25,1,0],[0.5,1,0],[0.75,1,0],[1,1,0],[0,0.25,0],[0,0.5,0],[0,0.75,0],[1,0.25,0],[1,0.5,0],[1,0.75,0]];outlineConnect=0;fontColor=#232F3E;fillColor=#ED7100;strokeColor=#ffffff;dashed=0;verticalLabelPosition=bottom;verticalAlign=top;align=center;html=1;fontSize=12;fontStyle=0;aspect=fixed;shape=mxgraph.aws4.resourceIcon;resIcon=mxgraph.aws4.fargate;" parent="kA7K5sc3ySlYg232Aals-72" vertex="1">
          <mxGeometry x="173" y="301" width="45" height="45" as="geometry" />
        </mxCell>
        <mxCell id="3IufpaYmcG0l0R8AAsW2-4" value="&lt;span style=&quot;font-size: 10px;&quot;&gt;fargate&lt;/span&gt;" style="text;html=1;align=center;verticalAlign=middle;resizable=0;points=[];autosize=1;strokeColor=none;fillColor=none;" parent="kA7K5sc3ySlYg232Aals-72" vertex="1">
          <mxGeometry x="169" y="339" width="49" height="26" as="geometry" />
        </mxCell>
        <mxCell id="3IufpaYmcG0l0R8AAsW2-6" value="" style="rounded=0;whiteSpace=wrap;html=1;fillColor=none;strokeColor=#d0cdcd;" parent="kA7K5sc3ySlYg232Aals-72" vertex="1">
          <mxGeometry x="430" y="176" width="98" height="102" as="geometry" />
        </mxCell>
        <mxCell id="3IufpaYmcG0l0R8AAsW2-7" value="" style="rounded=0;whiteSpace=wrap;html=1;fillColor=none;strokeColor=#d0cdcd;" parent="kA7K5sc3ySlYg232Aals-72" vertex="1">
          <mxGeometry x="432.5" y="333" width="98" height="102" as="geometry" />
        </mxCell>
        <mxCell id="kA7K5sc3ySlYg232Aals-92" value="Public subnet" style="points=[[0,0],[0.25,0],[0.5,0],[0.75,0],[1,0],[1,0.25],[1,0.5],[1,0.75],[1,1],[0.75,1],[0.5,1],[0.25,1],[0,1],[0,0.75],[0,0.5],[0,0.25]];outlineConnect=0;gradientColor=none;html=1;whiteSpace=wrap;fontSize=12;fontStyle=0;container=1;pointerEvents=0;collapsible=0;recursiveResize=0;shape=mxgraph.aws4.group;grIcon=mxgraph.aws4.group_security_group;grStroke=0;strokeColor=#7AA116;fillColor=#F2F6E8;verticalAlign=top;align=left;spacingLeft=30;fontColor=#248814;dashed=0;" parent="1" vertex="1">
          <mxGeometry x="-468" y="620" width="558" height="87" as="geometry" />
        </mxCell>
        <mxCell id="kA7K5sc3ySlYg232Aals-93" value="&lt;span style=&quot;font-size: 10px;&quot;&gt;nat gateway&lt;/span&gt;" style="text;html=1;align=center;verticalAlign=middle;resizable=0;points=[];autosize=1;strokeColor=none;fillColor=none;" parent="kA7K5sc3ySlYg232Aals-92" vertex="1">
          <mxGeometry x="146" y="24" width="72" height="26" as="geometry" />
        </mxCell>
        <mxCell id="kA7K5sc3ySlYg232Aals-99" style="edgeStyle=orthogonalEdgeStyle;rounded=0;orthogonalLoop=1;jettySize=auto;html=1;" parent="1" source="kA7K5sc3ySlYg232Aals-100" target="kA7K5sc3ySlYg232Aals-68" edge="1">
          <mxGeometry relative="1" as="geometry">
            <Array as="points">
              <mxPoint x="-230" y="405" />
            </Array>
          </mxGeometry>
        </mxCell>
        <mxCell id="kA7K5sc3ySlYg232Aals-100" value="" style="sketch=0;points=[[0,0,0],[0.25,0,0],[0.5,0,0],[0.75,0,0],[1,0,0],[0,1,0],[0.25,1,0],[0.5,1,0],[0.75,1,0],[1,1,0],[0,0.25,0],[0,0.5,0],[0,0.75,0],[1,0.25,0],[1,0.5,0],[1,0.75,0]];outlineConnect=0;fontColor=#232F3E;fillColor=#8C4FFF;strokeColor=#ffffff;dashed=0;verticalLabelPosition=bottom;verticalAlign=top;align=center;html=1;fontSize=12;fontStyle=0;aspect=fixed;shape=mxgraph.aws4.resourceIcon;resIcon=mxgraph.aws4.route_53;" parent="1" vertex="1">
          <mxGeometry x="118" y="393" width="45" height="45" as="geometry" />
        </mxCell>
        <mxCell id="HjDtsBbQejd2dWlMLh2n-10" style="edgeStyle=orthogonalEdgeStyle;rounded=0;orthogonalLoop=1;jettySize=auto;html=1;" parent="1" source="kA7K5sc3ySlYg232Aals-103" target="kA7K5sc3ySlYg232Aals-68" edge="1">
          <mxGeometry relative="1" as="geometry">
            <Array as="points">
              <mxPoint x="-259" y="457" />
              <mxPoint x="-259" y="457" />
            </Array>
          </mxGeometry>
        </mxCell>
        <mxCell id="kA7K5sc3ySlYg232Aals-103" value="" style="sketch=0;outlineConnect=0;fontColor=#232F3E;gradientColor=none;fillColor=#232F3D;strokeColor=none;dashed=0;verticalLabelPosition=bottom;verticalAlign=top;align=center;html=1;fontSize=12;fontStyle=0;aspect=fixed;pointerEvents=1;shape=mxgraph.aws4.users;" parent="1" vertex="1">
          <mxGeometry x="-289" y="229" width="60" height="60" as="geometry" />
        </mxCell>
        <mxCell id="kA7K5sc3ySlYg232Aals-105" value="users" style="text;html=1;align=center;verticalAlign=middle;resizable=0;points=[];autosize=1;strokeColor=none;fillColor=none;" parent="1" vertex="1">
          <mxGeometry x="-256" y="286" width="47" height="26" as="geometry" />
        </mxCell>
        <mxCell id="kA7K5sc3ySlYg232Aals-106" style="edgeStyle=orthogonalEdgeStyle;rounded=0;orthogonalLoop=1;jettySize=auto;html=1;endArrow=none;endFill=0;startArrow=classic;startFill=1;" parent="1" source="kA7K5sc3ySlYg232Aals-69" target="kA7K5sc3ySlYg232Aals-83" edge="1">
          <mxGeometry relative="1" as="geometry">
            <Array as="points">
              <mxPoint x="-428" y="715" />
              <mxPoint x="-428" y="715" />
            </Array>
          </mxGeometry>
        </mxCell>
        <mxCell id="kA7K5sc3ySlYg232Aals-107" style="edgeStyle=orthogonalEdgeStyle;rounded=0;orthogonalLoop=1;jettySize=auto;html=1;" parent="1" source="kA7K5sc3ySlYg232Aals-108" target="kA7K5sc3ySlYg232Aals-110" edge="1">
          <mxGeometry relative="1" as="geometry" />
        </mxCell>
        <mxCell id="kA7K5sc3ySlYg232Aals-108" value="" style="sketch=0;points=[[0,0,0],[0.25,0,0],[0.5,0,0],[0.75,0,0],[1,0,0],[0,1,0],[0.25,1,0],[0.5,1,0],[0.75,1,0],[1,1,0],[0,0.25,0],[0,0.5,0],[0,0.75,0],[1,0.25,0],[1,0.5,0],[1,0.75,0]];outlineConnect=0;fontColor=#232F3E;fillColor=#C925D1;strokeColor=#ffffff;dashed=0;verticalLabelPosition=bottom;verticalAlign=top;align=center;html=1;fontSize=12;fontStyle=0;aspect=fixed;shape=mxgraph.aws4.resourceIcon;resIcon=mxgraph.aws4.codebuild;" parent="1" vertex="1">
          <mxGeometry x="-9" y="490" width="45" height="45" as="geometry" />
        </mxCell>
        <mxCell id="kA7K5sc3ySlYg232Aals-109" style="edgeStyle=orthogonalEdgeStyle;rounded=0;orthogonalLoop=1;jettySize=auto;html=1;endArrow=none;endFill=0;startArrow=classic;startFill=1;" parent="1" source="kA7K5sc3ySlYg232Aals-110" target="kA7K5sc3ySlYg232Aals-69" edge="1">
          <mxGeometry relative="1" as="geometry">
            <Array as="points">
              <mxPoint x="-267" y="513" />
              <mxPoint x="-427" y="513" />
            </Array>
          </mxGeometry>
        </mxCell>
        <mxCell id="kA7K5sc3ySlYg232Aals-110" value="" style="outlineConnect=0;dashed=0;verticalLabelPosition=bottom;verticalAlign=top;align=center;html=1;shape=mxgraph.aws3.ecr;fillColor=#F58534;gradientColor=none;" parent="1" vertex="1">
          <mxGeometry x="-130" y="490" width="45" height="45" as="geometry" />
        </mxCell>
        <mxCell id="kA7K5sc3ySlYg232Aals-111" value="&lt;font style=&quot;font-size: 10px;&quot;&gt;codebuild&lt;/font&gt;" style="text;html=1;align=center;verticalAlign=middle;resizable=0;points=[];autosize=1;strokeColor=none;fillColor=none;" parent="1" vertex="1">
          <mxGeometry x="-15" y="526" width="61" height="26" as="geometry" />
        </mxCell>
        <mxCell id="kA7K5sc3ySlYg232Aals-112" value="&lt;span style=&quot;font-size: 10px;&quot;&gt;ecr&lt;/span&gt;" style="text;html=1;align=center;verticalAlign=middle;resizable=0;points=[];autosize=1;strokeColor=none;fillColor=none;" parent="1" vertex="1">
          <mxGeometry x="-123.5" y="526" width="32" height="26" as="geometry" />
        </mxCell>
        <mxCell id="kA7K5sc3ySlYg232Aals-113" style="edgeStyle=orthogonalEdgeStyle;rounded=0;orthogonalLoop=1;jettySize=auto;html=1;" parent="1" source="kA7K5sc3ySlYg232Aals-68" target="kA7K5sc3ySlYg232Aals-94" edge="1">
          <mxGeometry relative="1" as="geometry">
            <Array as="points">
              <mxPoint x="-107" y="567" />
            </Array>
          </mxGeometry>
        </mxCell>
        <mxCell id="kA7K5sc3ySlYg232Aals-115" value="" style="sketch=0;outlineConnect=0;fontColor=#232F3E;gradientColor=none;fillColor=#E7157B;strokeColor=none;dashed=0;verticalLabelPosition=bottom;verticalAlign=top;align=center;html=1;fontSize=12;fontStyle=0;aspect=fixed;pointerEvents=1;shape=mxgraph.aws4.parameter_store;" parent="1" vertex="1">
          <mxGeometry x="-549.27" y="402" width="43.27" height="45" as="geometry" />
        </mxCell>
        <mxCell id="kA7K5sc3ySlYg232Aals-116" value="&lt;font style=&quot;font-size: 10px;&quot;&gt;parameter store&lt;/font&gt;" style="text;html=1;align=center;verticalAlign=middle;resizable=0;points=[];autosize=1;strokeColor=none;fillColor=none;" parent="1" vertex="1">
          <mxGeometry x="-567" y="441" width="89" height="26" as="geometry" />
        </mxCell>
        <mxCell id="kA7K5sc3ySlYg232Aals-117" value="&lt;font style=&quot;font-size: 14px;&quot;&gt;aws-prd&lt;/font&gt;" style="text;html=1;align=center;verticalAlign=middle;resizable=0;points=[];autosize=1;strokeColor=none;fillColor=none;" parent="1" vertex="1">
          <mxGeometry x="-602" y="349" width="68" height="29" as="geometry" />
        </mxCell>
        <mxCell id="kA7K5sc3ySlYg232Aals-120" style="edgeStyle=orthogonalEdgeStyle;rounded=0;orthogonalLoop=1;jettySize=auto;html=1;" parent="1" source="kA7K5sc3ySlYg232Aals-121" target="kA7K5sc3ySlYg232Aals-68" edge="1">
          <mxGeometry relative="1" as="geometry">
            <Array as="points">
              <mxPoint x="-341" y="569" />
            </Array>
          </mxGeometry>
        </mxCell>
        <mxCell id="kA7K5sc3ySlYg232Aals-121" value="" style="outlineConnect=0;dashed=0;verticalLabelPosition=bottom;verticalAlign=top;align=center;html=1;shape=mxgraph.aws3.vpc_nat_gateway;fillColor=#F58534;gradientColor=none;" parent="1" vertex="1">
          <mxGeometry x="-363" y="605" width="45" height="45" as="geometry" />
        </mxCell>
        <mxCell id="0zvZXE3hYcVArxWaASn7-14" value="&lt;span style=&quot;font-size: 10px;&quot;&gt;elb&lt;/span&gt;" style="text;html=1;align=center;verticalAlign=middle;resizable=0;points=[];autosize=1;strokeColor=none;fillColor=none;" parent="1" vertex="1">
          <mxGeometry x="-89" y="1034" width="31" height="26" as="geometry" />
        </mxCell>
        <mxCell id="kA7K5sc3ySlYg232Aals-95" value="&lt;span style=&quot;font-size: 10px;&quot;&gt;ec2&lt;/span&gt;&lt;div&gt;&lt;span style=&quot;font-size: 10px;&quot;&gt;踏み台サーバー&lt;/span&gt;&lt;/div&gt;" style="text;html=1;align=center;verticalAlign=middle;resizable=0;points=[];autosize=1;strokeColor=none;fillColor=none;" parent="1" vertex="1">
          <mxGeometry x="-373" y="788" width="87" height="41" as="geometry" />
        </mxCell>
        <mxCell id="SYO9HQyrmS-Qv4K9v25R-16" style="edgeStyle=orthogonalEdgeStyle;rounded=0;orthogonalLoop=1;jettySize=auto;html=1;" parent="1" source="kA7K5sc3ySlYg232Aals-94" target="kA7K5sc3ySlYg232Aals-78" edge="1">
          <mxGeometry relative="1" as="geometry">
            <Array as="points">
              <mxPoint x="-104" y="755" />
              <mxPoint x="-224" y="755" />
            </Array>
          </mxGeometry>
        </mxCell>
        <mxCell id="SYO9HQyrmS-Qv4K9v25R-27" style="edgeStyle=orthogonalEdgeStyle;rounded=0;orthogonalLoop=1;jettySize=auto;html=1;" parent="1" source="kA7K5sc3ySlYg232Aals-94" target="kA7K5sc3ySlYg232Aals-129" edge="1">
          <mxGeometry relative="1" as="geometry">
            <Array as="points">
              <mxPoint x="-104" y="755" />
              <mxPoint x="14" y="755" />
            </Array>
          </mxGeometry>
        </mxCell>
        <mxCell id="kA7K5sc3ySlYg232Aals-94" value="" style="sketch=0;points=[[0,0,0],[0.25,0,0],[0.5,0,0],[0.75,0,0],[1,0,0],[0,1,0],[0.25,1,0],[0.5,1,0],[0.75,1,0],[1,1,0],[0,0.25,0],[0,0.5,0],[0,0.75,0],[1,0.25,0],[1,0.5,0],[1,0.75,0]];outlineConnect=0;fontColor=#232F3E;fillColor=#8C4FFF;strokeColor=#ffffff;dashed=0;verticalLabelPosition=bottom;verticalAlign=top;align=center;html=1;fontSize=12;fontStyle=0;aspect=fixed;shape=mxgraph.aws4.resourceIcon;resIcon=mxgraph.aws4.elastic_load_balancing;" parent="1" vertex="1">
          <mxGeometry x="-127" y="599" width="45" height="45" as="geometry" />
        </mxCell>
        <mxCell id="0zvZXE3hYcVArxWaASn7-3" value="&lt;span style=&quot;font-size: 10px;&quot;&gt;elb&lt;/span&gt;" style="text;html=1;align=center;verticalAlign=middle;resizable=0;points=[];autosize=1;strokeColor=none;fillColor=none;" parent="1" vertex="1">
          <mxGeometry x="-110" y="637" width="31" height="26" as="geometry" />
        </mxCell>
        <mxCell id="HjDtsBbQejd2dWlMLh2n-1" value="&lt;span style=&quot;font-size: 10px;&quot;&gt;8000 port&lt;/span&gt;" style="text;html=1;align=center;verticalAlign=middle;resizable=0;points=[];autosize=1;strokeColor=none;fillColor=none;" parent="1" vertex="1">
          <mxGeometry x="-177" y="1088" width="60" height="26" as="geometry" />
        </mxCell>
        <mxCell id="HjDtsBbQejd2dWlMLh2n-6" value="&lt;span style=&quot;font-size: 10px;&quot;&gt;8000 port&lt;/span&gt;" style="text;html=1;align=center;verticalAlign=middle;resizable=0;points=[];autosize=1;strokeColor=none;fillColor=none;" parent="1" vertex="1">
          <mxGeometry x="-174" y="932" width="60" height="26" as="geometry" />
        </mxCell>
        <mxCell id="HjDtsBbQejd2dWlMLh2n-8" value="&lt;span style=&quot;font-size: 10px;&quot;&gt;8001 port&lt;/span&gt;" style="text;html=1;align=center;verticalAlign=middle;resizable=0;points=[];autosize=1;strokeColor=none;fillColor=none;" parent="1" vertex="1">
          <mxGeometry x="-97" y="932" width="60" height="26" as="geometry" />
        </mxCell>
        <mxCell id="j9m2Fc2l2zRI1z2SVPjK-1" value="" style="sketch=0;points=[[0,0,0],[0.25,0,0],[0.5,0,0],[0.75,0,0],[1,0,0],[0,1,0],[0.25,1,0],[0.5,1,0],[0.75,1,0],[1,1,0],[0,0.25,0],[0,0.5,0],[0,0.75,0],[1,0.25,0],[1,0.5,0],[1,0.75,0]];outlineConnect=0;fontColor=#232F3E;fillColor=#ED7100;strokeColor=#ffffff;dashed=0;verticalLabelPosition=bottom;verticalAlign=top;align=center;html=1;fontSize=12;fontStyle=0;aspect=fixed;shape=mxgraph.aws4.resourceIcon;resIcon=mxgraph.aws4.fargate;" vertex="1" parent="1">
          <mxGeometry x="42" y="1024.5" width="45" height="45" as="geometry" />
        </mxCell>
        <mxCell id="j9m2Fc2l2zRI1z2SVPjK-2" value="&lt;span style=&quot;font-size: 10px;&quot;&gt;fargate&lt;/span&gt;" style="text;html=1;align=center;verticalAlign=middle;resizable=0;points=[];autosize=1;strokeColor=none;fillColor=none;" vertex="1" parent="1">
          <mxGeometry x="40" y="1062" width="49" height="26" as="geometry" />
        </mxCell>
      </root>
    </mxGraphModel>
  </diagram>
</mxfile>
